<svg xmlns="http://www.w3.org/2000/svg" viewBox="0 0 32 32">
  <defs>
    <linearGradient id="grad" x1="0%" y1="0%" x2="100%" y2="100%">
      <stop offset="0%" style="stop-color:#6366f1;stop-opacity:1" />
      <stop offset="100%" style="stop-color:#4f46e5;stop-opacity:1" />
    </linearGradient>
    <filter id="shadow" x="-50%" y="-50%" width="200%" height="200%">
      <feDropShadow dx="0" dy="2" stdDeviation="2" flood-color="#4f46e5" flood-opacity="0.3"/>
    </filter>
  </defs>
  <path d="M16 2C10.477 2 6 6.477 6 12c0 5.8 9.2 17.2 9.6 17.7.2.2.5.2.8 0C16.8 29.2 26 17.8 26 12c0-5.523-4.477-10-10-10zm0 14c-2.209 0-4-1.791-4-4s1.791-4 4-4 4 1.791 4 4-1.791 4-4 4z" fill="url(#grad)" filter="url(#shadow)"/>
</svg>
